<?xml version="1.0" encoding="UTF-8" standalone="no"?>
<svg
   xmlns:dc="http://purl.org/dc/elements/1.1/"
   xmlns:cc="http://creativecommons.org/ns#"
   xmlns:rdf="http://www.w3.org/1999/02/22-rdf-syntax-ns#"
   xmlns:svg="http://www.w3.org/2000/svg"
   xmlns="http://www.w3.org/2000/svg"
   xmlns:sodipodi="http://sodipodi.sourceforge.net/DTD/sodipodi-0.dtd"
   xmlns:inkscape="http://www.inkscape.org/namespaces/inkscape"
   enable-background="new 0 0 800 800"
   height="691.04602"
   id="Layer_1"
   version="1.1"
   viewBox="0 0 708.7464 691.04602"
   width="708.7464"
   xml:space="preserve"
   inkscape:version="0.91 r13725"
   sodipodi:docname="1487991044_destination.svg"><metadata
     id="metadata19"><rdf:RDF><cc:Work
         rdf:about=""><dc:format>image/svg+xml</dc:format><dc:type
           rdf:resource="http://purl.org/dc/dcmitype/StillImage" /><dc:title></dc:title></cc:Work></rdf:RDF></metadata><defs
     id="defs17" /><sodipodi:namedview
     pagecolor="#ffffff"
     bordercolor="#666666"
     borderopacity="1"
     objecttolerance="10"
     gridtolerance="10"
     guidetolerance="10"
     inkscape:pageopacity="0"
     inkscape:pageshadow="2"
     inkscape:window-width="3840"
     inkscape:window-height="2081"
     id="namedview15"
     showgrid="false"
     showborder="false"
     inkscape:showpageshadow="false"
     fit-margin-top="0"
     fit-margin-left="0"
     fit-margin-right="0"
     fit-margin-bottom="0"
     inkscape:zoom="1.668772"
     inkscape:cx="305.59851"
     inkscape:cy="332.17546"
     inkscape:window-x="0"
     inkscape:window-y="41"
     inkscape:window-maximized="1"
     inkscape:current-layer="Layer_1" /><g
     id="g3"
     style="fill:#fefe3c;fill-opacity:1"
     transform="translate(-45.625608,-54.476)"><path
       d="m 607.738,375.643 -40.144,-26.23 c -4.685,-3.056 -10.07,-4.601 -15.463,-4.601 -4.613,0 -9.242,1.127 -13.453,3.406 -9.115,4.936 -14.808,14.478 -14.808,24.854 l 0,12.1 -93.425,0 0,-93.433 12.096,0 c 10.377,0 19.918,-5.685 24.854,-14.809 4.937,-9.123 4.479,-20.222 -1.198,-28.907 l -26.219,-40.147 c -5.212,-7.987 -14.114,-12.806 -23.664,-12.806 -9.541,0 -18.436,4.818 -23.655,12.81 l -26.227,40.147 c -5.661,8.686 -6.119,19.78 -1.183,28.903 4.937,9.124 14.478,14.809 24.854,14.809 l 12.08,0 0,93.433 -93.408,0 0,-12.1 c 0,-10.377 -5.693,-19.919 -14.809,-24.854 -4.211,-2.279 -8.84,-3.406 -13.452,-3.406 -5.394,0 -10.779,1.545 -15.455,4.601 l -40.152,26.23 c -7.995,5.22 -12.806,14.118 -12.806,23.663 0,9.546 4.811,18.444 12.806,23.66 l 40.152,26.215 c 4.684,3.055 10.062,4.597 15.455,4.597 4.62,0 9.241,-1.128 13.452,-3.406 9.115,-4.94 14.809,-14.481 14.809,-24.854 l 0,-12.084 93.408,0 0,93.408 -12.08,0 c -10.377,0 -19.918,5.686 -24.854,14.809 -4.937,9.119 -4.479,20.218 1.183,28.903 l 26.227,40.152 c 5.22,7.991 14.114,12.809 23.655,12.809 9.55,0 18.452,-4.817 23.664,-12.809 l 26.227,-40.152 c 5.669,-8.686 6.127,-19.78 1.19,-28.903 -4.937,-9.123 -14.478,-14.809 -24.854,-14.809 l -12.096,0 0,-93.408 93.425,0 0,12.084 c 0,10.373 5.692,19.914 14.808,24.854 4.211,2.274 8.84,3.406 13.453,3.406 5.393,0 10.771,-1.542 15.455,-4.597 l 40.151,-26.215 c 7.987,-5.216 12.806,-14.118 12.806,-23.66 10e-4,-9.541 -4.81,-18.444 -12.805,-23.663 z m -191.423,-152.312 26.227,40.147 -52.437,0 26.21,-40.147 z m -135.798,202.186 -40.152,-26.215 40.152,-26.229 0,52.444 z m 135.798,149.737 -26.21,-40.152 52.437,0 -26.227,40.152 z m 135.817,-149.737 0,-52.444 40.151,26.229 -40.151,26.215 z"
       id="path5"
       style="fill:#fefe3c;fill-opacity:1"
       inkscape:connector-curvature="0" /><path
       d="m 385.682,167.878 c 7.799,0 14.131,-6.328 14.131,-14.13 l 0,-43.452 39.859,52.043 c 2.729,3.56 6.907,5.539 11.221,5.539 1.514,0 3.044,-0.244 4.534,-0.749 5.732,-1.943 9.589,-7.325 9.589,-13.381 l 0,-85.142 c 0,-7.802 -6.324,-14.13 -14.131,-14.13 -7.799,0 -14.13,6.328 -14.13,14.13 l 0,43.452 -39.853,-52.043 c -3.675,-4.806 -10.015,-6.726 -15.755,-4.79 -5.74,1.943 -9.596,7.325 -9.596,13.381 l 0,85.142 c 0.001,7.802 6.332,14.13 14.131,14.13 z"
       id="path7"
       style="fill:#fefe3c;fill-opacity:1"
       inkscape:connector-curvature="0" /><path
       d="m 740.242,411.3 c 7.806,0 14.13,-6.328 14.13,-14.131 0,-7.802 -6.324,-14.13 -14.13,-14.13 l -58.375,0 0,-14.213 58.375,0 c 7.806,0 14.13,-6.328 14.13,-14.131 0,-7.803 -6.324,-14.13 -14.13,-14.13 l -72.505,0 c -7.799,0 -14.131,6.327 -14.131,14.13 0,0.733 0.103,1.436 0.213,2.141 -0.11,0.706 -0.213,1.408 -0.213,2.141 l 0,84.771 c 0,7.803 6.332,14.131 14.131,14.131 l 72.505,0 c 7.806,0 14.13,-6.328 14.13,-14.131 0,-7.802 -6.324,-14.13 -14.13,-14.13 l -58.375,0 0,-18.318 58.375,0 z"
       id="path9"
       style="fill:#fefe3c;fill-opacity:1"
       inkscape:connector-curvature="0" /><path
       d="m 458.502,680.036 c -10.369,-5.985 -22.347,-6.572 -31.975,-7.042 -2.019,-0.102 -3.998,-0.196 -5.906,-0.342 l -1.072,-0.084 c -6.466,-0.492 -16.252,-1.237 -19.271,-4.68 -0.859,-0.978 -1.293,-2.669 -1.041,-4.104 0.063,-0.383 0.236,-1.053 0.615,-1.266 13.145,-7.294 37.479,-3.127 52.026,-0.639 7.696,1.285 14.998,-3.852 16.315,-11.545 1.316,-7.691 -3.856,-14.997 -11.545,-16.314 -19.39,-3.319 -48.699,-8.338 -70.518,3.793 -7.79,4.33 -13.16,12.037 -14.737,21.148 -1.711,9.865 1.151,20.174 7.648,27.574 10.622,12.097 27.314,13.37 38.362,14.21 l 1.024,0.079 c 2.161,0.169 4.416,0.279 6.719,0.395 7.263,0.354 14.777,0.725 19.098,3.134 0.544,1.017 0.166,4.755 -1.79,7.408 -3.201,4.333 -11.599,6.214 -23.647,5.267 l -1.577,-0.117 c -3.706,-0.28 -14.958,-1.12 -17.741,-3.04 -5.772,-5.243 -14.706,-4.825 -19.958,0.958 -5.244,5.775 -4.818,14.71 0.954,19.961 8.54,7.756 21.795,9.34 34.632,10.303 l 1.498,0.11 c 2.729,0.213 5.378,0.319 7.925,0.319 18.664,0 32.322,-5.693 40.648,-16.977 6.261,-8.473 8.879,-19.809 6.837,-29.582 -1.695,-8.144 -6.498,-14.865 -13.523,-18.927 z"
       id="path11"
       style="fill:#fefe3c;fill-opacity:1"
       inkscape:connector-curvature="0" /><path
       d="m 176.446,343.372 c -7.506,-2.086 -15.297,2.318 -17.387,9.841 l -11.962,43.156 -17.056,-44.441 c -2.231,-5.827 -7.917,-9.254 -13.831,-8.989 -5.898,-0.252 -11.583,3.17 -13.815,8.989 L 85.339,396.369 73.377,353.217 c -2.082,-7.522 -9.88,-11.938 -17.387,-9.845 -7.522,2.086 -11.93,9.872 -9.849,17.391 l 23.412,84.459 c 1.624,5.879 6.844,10.05 12.932,10.342 0.236,0.012 0.457,0.016 0.686,0.016 5.828,0 11.079,-3.588 13.192,-9.068 l 19.855,-51.73 19.855,51.73 c 2.098,5.48 7.365,9.068 13.185,9.068 0.221,0 0.457,-0.004 0.678,-0.016 6.096,-0.292 11.308,-4.463 12.947,-10.338 l 23.412,-84.459 c 2.09,-7.523 -2.325,-15.309 -9.849,-17.395 z"
       id="path13"
       style="fill:#fefe3c;fill-opacity:1"
       inkscape:connector-curvature="0" /></g></svg>