<?xml version="1.0" encoding="UTF-8" standalone="no"?>
<svg
   xmlns:dc="http://purl.org/dc/elements/1.1/"
   xmlns:cc="http://creativecommons.org/ns#"
   xmlns:rdf="http://www.w3.org/1999/02/22-rdf-syntax-ns#"
   xmlns:svg="http://www.w3.org/2000/svg"
   xmlns="http://www.w3.org/2000/svg"
   xmlns:sodipodi="http://sodipodi.sourceforge.net/DTD/sodipodi-0.dtd"
   xmlns:inkscape="http://www.inkscape.org/namespaces/inkscape"
   enable-background="new 0 0 48 48"
   height="46"
   id="Layer_1"
   version="1.1"
   viewBox="0 0 36 46"
   width="36"
   xml:space="preserve"
   inkscape:version="0.91 r13725"
   sodipodi:docname="1487991067_28.Tablet.svg"><metadata
     id="metadata9"><rdf:RDF><cc:Work
         rdf:about=""><dc:format>image/svg+xml</dc:format><dc:type
           rdf:resource="http://purl.org/dc/dcmitype/StillImage" /><dc:title></dc:title></cc:Work></rdf:RDF></metadata><defs
     id="defs7" /><sodipodi:namedview
     pagecolor="#ffffff"
     bordercolor="#666666"
     borderopacity="1"
     objecttolerance="10"
     gridtolerance="10"
     guidetolerance="10"
     inkscape:pageopacity="0"
     inkscape:pageshadow="2"
     inkscape:window-width="3840"
     inkscape:window-height="2081"
     id="namedview5"
     showgrid="false"
     inkscape:showpageshadow="false"
     showborder="false"
     fit-margin-top="0"
     fit-margin-left="0"
     fit-margin-right="0"
     fit-margin-bottom="0"
     inkscape:zoom="19.666667"
     inkscape:cx="20.674502"
     inkscape:cy="15.353916"
     inkscape:window-x="0"
     inkscape:window-y="41"
     inkscape:window-maximized="1"
     inkscape:current-layer="Layer_1" /><path
     d="M 32,46 4,46 C 1.791,46 0,44.209 0,42 L 0,4 C 0,1.791 1.791,0 4,0 l 28,0 c 2.209,0 4,1.791 4,4 l 0,38 c 0,2.209 -1.791,4 -4,4 z M 34,4 C 34,2.896 33.104,2 32,2 L 4,2 C 2.896,2 2,2.896 2,4 l 0,38 c 0,1.104 0.896,2 2,2 l 28,0 c 1.104,0 2,-0.896 2,-2 L 34,4 Z M 4,38 4,6 l 0,0 28,0 0,0 0,32 0,0 -28,0 0,0 z M 6,36 30,36 30,8 6,8 6,36 Z m 20,-21 -2,0 c -0.553,0 -1,-0.448 -1,-1 l 0,-2 c 0,-0.552 0.447,-1 1,-1 l 2,0 c 0.553,0 1,0.448 1,1 l 0,2 c 0,0.552 -0.447,1 -1,1 z m -7,7 -2,0 c -0.553,0 -1,-0.447 -1,-1 l 0,-2 c 0,-0.552 0.447,-1 1,-1 l 2,0 c 0.553,0 1,0.448 1,1 l 0,2 c 0,0.553 -0.447,1 -1,1 z m 0,-7 -2,0 c -0.553,0 -1,-0.448 -1,-1 l 0,-2 c 0,-0.552 0.447,-1 1,-1 l 2,0 c 0.553,0 1,0.448 1,1 l 0,2 c 0,0.552 -0.447,1 -1,1 z m -7,7 -2,0 C 9.447,22 9,21.553 9,21 l 0,-2 c 0,-0.552 0.447,-1 1,-1 l 2,0 c 0.553,0 1,0.448 1,1 l 0,2 c 0,0.553 -0.447,1 -1,1 z m 0,-7 -2,0 C 9.447,15 9,14.552 9,14 l 0,-2 c 0,-0.552 0.447,-1 1,-1 l 2,0 c 0.553,0 1,0.448 1,1 l 0,2 c 0,0.552 -0.447,1 -1,1 z m 5,-12 2,0 0,2 -2,0 0,-2 z m 1,36 c 1.104,0 2,0.896 2,2 0,1.104 -0.896,2 -2,2 -1.104,0 -2,-0.896 -2,-2 0,-1.104 0.896,-2 2,-2 z"
     id="path3"
     style="clip-rule:evenodd;fill:#fefe3c;fill-opacity:1;fill-rule:evenodd"
     inkscape:connector-curvature="0" /></svg>