<?xml version="1.0" encoding="UTF-8" standalone="no"?>
<svg
   xmlns:dc="http://purl.org/dc/elements/1.1/"
   xmlns:cc="http://creativecommons.org/ns#"
   xmlns:rdf="http://www.w3.org/1999/02/22-rdf-syntax-ns#"
   xmlns:svg="http://www.w3.org/2000/svg"
   xmlns="http://www.w3.org/2000/svg"
   xmlns:sodipodi="http://sodipodi.sourceforge.net/DTD/sodipodi-0.dtd"
   xmlns:inkscape="http://www.inkscape.org/namespaces/inkscape"
   height="137.9995"
   id="icon"
   version="1.0"
   viewBox="0 0 148.00075 137.9995"
   width="148.00075"
   xml:space="preserve"
   inkscape:version="0.91 r13725"
   sodipodi:docname="1487989833_home.svg"><metadata
     id="metadata8"><rdf:RDF><cc:Work
         rdf:about=""><dc:format>image/svg+xml</dc:format><dc:type
           rdf:resource="http://purl.org/dc/dcmitype/StillImage" /><dc:title></dc:title></cc:Work></rdf:RDF></metadata><defs
     id="defs6" /><sodipodi:namedview
     pagecolor="#ffffff"
     bordercolor="#666666"
     borderopacity="1"
     objecttolerance="10"
     gridtolerance="10"
     guidetolerance="10"
     inkscape:pageopacity="0"
     inkscape:pageshadow="2"
     inkscape:window-width="3840"
     inkscape:window-height="2081"
     id="namedview4"
     showgrid="false"
     inkscape:showpageshadow="false"
     showborder="false"
     fit-margin-top="0"
     fit-margin-left="0"
     fit-margin-right="0"
     fit-margin-bottom="0"
     inkscape:zoom="5.9"
     inkscape:cx="54.137931"
     inkscape:cy="42.77"
     inkscape:window-x="0"
     inkscape:window-y="41"
     inkscape:window-maximized="1"
     inkscape:current-layer="icon" /><path
     d="m 1.1715,76.8285 c -1.562,-1.563 -1.562,-4.095 0,-5.657 l 70,-70 c 1.563,-1.562 4.095,-1.562 5.657,0 l 70,70 c 1.563,1.563 1.563,4.096 0,5.657 -0.781,0.78 -1.805,1.171 -2.828,1.171 -1.023,0 -2.047,-0.391 -2.829,-1.171 L 74.0005,9.6565 6.8295,76.8285 c -1.563,1.562 -4.095,1.562 -5.658,0 z m 70.61,40.499 c -15.624,-10.416 -31.781,-21.187 -31.781,-38.328 0,-15.38 10.188,-23.427 20.252,-23.427 5.143,0 10.323,2.152 13.748,6.346 3.425,-4.193 8.604,-6.346 13.748,-6.346 10.064,0 20.252,8.047 20.252,23.427 0,17.141 -16.157,27.912 -31.781,38.328 -0.672,0.447 -1.445,0.672 -2.219,0.672 -0.773,0 -1.547,-0.225 -2.219,-0.672 z m 2.219,-8.139 c 13.143,-8.795 26,-18.017 26,-30.189 0,-10.657 -6.154,-15.427 -12.252,-15.427 -4.852,0 -9.748,3.224 -9.748,10.427 0,2.209 -1.791,4 -4,4 -2.209,0 -4,-1.791 -4,-4 0,-7.203 -4.896,-10.427 -9.748,-10.427 -6.098,0 -12.252,4.77 -12.252,15.427 0,12.174 12.858,21.395 26,30.189 z m -55,-29.189 c -2.209,0 -4,1.791 -4,4 l 0,50 c 0,2.209 1.791,4 4,4 l 110,0 c 2.209,0 4,-1.791 4,-4 l 0,-50 c 0,-2.209 -1.791,-4 -4,-4 -2.209,0 -4,1.791 -4,4 l 0,46 -102,0 0,-46 c 0,-2.209 -1.791,-4 -4,-4 z"
     id="home"
     style="fill:#fefe3c;fill-opacity:1"
     inkscape:connector-curvature="0" /></svg>