<?xml version="1.0" encoding="UTF-8" standalone="no"?>
<svg
   xmlns:dc="http://purl.org/dc/elements/1.1/"
   xmlns:cc="http://creativecommons.org/ns#"
   xmlns:rdf="http://www.w3.org/1999/02/22-rdf-syntax-ns#"
   xmlns:svg="http://www.w3.org/2000/svg"
   xmlns="http://www.w3.org/2000/svg"
   xmlns:sodipodi="http://sodipodi.sourceforge.net/DTD/sodipodi-0.dtd"
   xmlns:inkscape="http://www.inkscape.org/namespaces/inkscape"
   enable-background="new 0 0 32 32"
   height="27.50025"
   id="Layer_1"
   version="1.1"
   viewBox="0 0 28.0005 27.50025"
   width="28.0005"
   xml:space="preserve"
   inkscape:version="0.91 r13725"
   sodipodi:docname="1487989845_home_house_real_estate.svg"><metadata
     id="metadata9"><rdf:RDF><cc:Work
         rdf:about=""><dc:format>image/svg+xml</dc:format><dc:type
           rdf:resource="http://purl.org/dc/dcmitype/StillImage" /><dc:title></dc:title></cc:Work></rdf:RDF></metadata><defs
     id="defs7" /><sodipodi:namedview
     pagecolor="#ffffff"
     bordercolor="#666666"
     borderopacity="1"
     objecttolerance="10"
     gridtolerance="10"
     guidetolerance="10"
     inkscape:pageopacity="0"
     inkscape:pageshadow="2"
     inkscape:window-width="3840"
     inkscape:window-height="2081"
     id="namedview5"
     showgrid="false"
     fit-margin-top="0"
     fit-margin-left="0"
     fit-margin-right="0"
     fit-margin-bottom="0"
     showborder="false"
     inkscape:showpageshadow="false"
     inkscape:zoom="29.5"
     inkscape:cx="19.671813"
     inkscape:cy="4.2606232"
     inkscape:window-x="0"
     inkscape:window-y="41"
     inkscape:window-maximized="1"
     inkscape:current-layer="Layer_1" /><path
     d="m 27.70725,13.29325 -13,-13 c -0.391,-0.391 -1.023,-0.391 -1.414,0 l -13,13 c -0.391,0.391 -0.391,1.023 0,1.414 0.391,0.391 1.023,0.391 1.414,0 l 12.293,-12.293 8.014,8.014 c -0.001,0.025 -0.014,0.047 -0.014,0.072 l 0,15 -16,0 0,-10 c 0,-0.553 -0.448,-1 -1,-1 -0.552,0 -1,0.447 -1,1 l 0,11 c 0,0.553 0.448,1 1,1 l 18,0 c 0.553,0 1,-0.447 1,-1 l 0,-14.086 2.293,2.293 c 0.195,0.195 0.451,0.293 0.707,0.293 0.256,0 0.512,-0.098 0.707,-0.293 0.391,-0.391 0.391,-1.023 0,-1.414 z"
     id="path3"
     style="fill:#fefe3c;fill-opacity:1"
     inkscape:connector-curvature="0" /></svg>