<?xml version="1.0" encoding="UTF-8" standalone="no"?>
<svg
   xmlns:dc="http://purl.org/dc/elements/1.1/"
   xmlns:cc="http://creativecommons.org/ns#"
   xmlns:rdf="http://www.w3.org/1999/02/22-rdf-syntax-ns#"
   xmlns:svg="http://www.w3.org/2000/svg"
   xmlns="http://www.w3.org/2000/svg"
   xmlns:sodipodi="http://sodipodi.sourceforge.net/DTD/sodipodi-0.dtd"
   xmlns:inkscape="http://www.inkscape.org/namespaces/inkscape"
   version="1.0"
   width="221.03838pt"
   height="188.00867pt"
   viewBox="0 0 221.03838 188.00867"
   preserveAspectRatio="xMidYMid meet"
   id="svg2"
   inkscape:version="0.91 r13725"
   sodipodi:docname="wingsLove.svg">
  <metadata
     id="metadata62">
    <rdf:RDF>
      <cc:Work
         rdf:about="">
        <dc:format>image/svg+xml</dc:format>
        <dc:type
           rdf:resource="http://purl.org/dc/dcmitype/StillImage" />
        <dc:title></dc:title>
      </cc:Work>
    </rdf:RDF>
  </metadata>
  <defs
     id="defs60" />
  <sodipodi:namedview
     pagecolor="#ffffff"
     bordercolor="#666666"
     borderopacity="1"
     objecttolerance="10"
     gridtolerance="10"
     guidetolerance="10"
     inkscape:pageopacity="0"
     inkscape:pageshadow="2"
     inkscape:window-width="3156"
     inkscape:window-height="1549"
     id="namedview58"
     showgrid="false"
     inkscape:showpageshadow="false"
     showborder="false"
     fit-margin-top="0"
     fit-margin-left="0"
     fit-margin-right="0"
     fit-margin-bottom="0"
     inkscape:zoom="5.3400704"
     inkscape:cx="115.78685"
     inkscape:cy="105.89352"
     inkscape:window-x="0"
     inkscape:window-y="41"
     inkscape:window-maximized="0"
     inkscape:current-layer="svg2" />
  <g
     transform="matrix(0.1,0,0,-0.1,-3.9616241,194.00867)"
     id="g4"
     style="fill:#fefe3c;fill-opacity:1;stroke:none">
    <path
       d="m 803,1920 c -73,-44 -153,-150 -152,-200 0,-8 9,7 19,34 21,53 77,118 122,142 40,21 53,18 34,-8 -29,-41 -65,-127 -76,-186 -6,-31 -10,-116 -8,-189 l 3,-132 -52,56 c -31,34 -49,63 -46,72 4,14 3,14 -6,1 -8,-12 -16,-2 -40,50 -40,90 -52,138 -59,254 -4,57 -11,101 -17,100 -23,-1 -68,-114 -73,-187 -4,-52 -8,-65 -13,-47 -19,65 -6,-15 14,-92 13,-49 23,-88 21,-88 -9,0 -59,98 -60,120 -2,14 -3,34 -4,45 -1,20 -2,20 -9,0 -6,-14 -12,-2 -25,50 -33,126 -37,136 -54,133 -26,-5 -37,-66 -25,-140 l 10,-63 2,88 c 0,48 5,87 9,87 5,0 19,-37 31,-82 31,-111 67,-180 164,-309 45,-59 92,-124 104,-144 l 22,-35 -22,0 c -14,0 -41,18 -67,45 -27,27 -53,45 -67,45 -30,0 -31,-30 -2,-56 22,-19 22,-19 10,3 -14,28 -14,33 2,33 18,0 107,-79 107,-95 0,-7 11,-27 25,-43 24,-29 24,-30 5,-35 -29,-8 -24,-34 10,-52 l 30,-16 -34,-29 c -41,-37 -67,-37 -130,-2 -84,46 -71,61 37,43 26,-4 47,-6 47,-5 0,2 -26,17 -59,33 -74,38 -121,77 -121,102 0,24 38,26 81,3 17,-8 33,-14 35,-11 2,2 -24,17 -58,32 -76,33 -88,46 -140,152 -39,80 -56,170 -35,183 5,3 33,-35 64,-85 30,-49 69,-103 86,-120 21,-20 25,-22 10,-5 -46,55 -96,141 -119,206 -13,38 -22,56 -19,39 5,-28 4,-29 -9,-11 -9,11 -21,16 -32,12 -14,-5 -16,-15 -10,-54 l 6,-47 -28,50 c -60,106 -72,117 -72,63 0,-43 16,-99 35,-123 11,-15 9,-4 -5,39 -11,33 -18,62 -15,65 10,10 33,-25 100,-154 36,-71 71,-136 77,-143 6,-7 8,-16 4,-20 -7,-6 -65,51 -153,152 -23,26 -47,45 -52,41 -30,-18 11,-120 86,-212 19,-24 31,-43 26,-43 -4,0 -41,27 -81,60 -41,33 -78,58 -83,54 -16,-9 -10,-38 17,-77 l 25,-38 -50,25 c -28,15 -53,26 -56,26 -24,0 37,-76 89,-112 23,-16 19,-8 -19,30 -27,29 -46,52 -42,52 24,0 252,-145 239,-153 -4,-2 -1,-2 5,-1 7,2 13,0 13,-5 0,-4 28,-15 63,-24 34,-9 85,-24 112,-34 l 50,-17 -45,-8 c -52,-9 -91,-1 -69,13 10,6 8,9 -8,9 -25,0 -30,-14 -10,-27 6,-4 12,-19 12,-33 0,-17 7,-26 25,-32 16,-5 3,-6 -36,-4 -72,4 -147,38 -142,64 3,14 14,17 63,15 63,-1 58,2 -48,26 -55,13 -133,59 -121,71 5,5 31,4 58,-1 70,-13 69,-3 -1,12 -74,16 -85,17 -90,2 -4,-12 20,-40 53,-59 15,-10 10,-11 -31,-7 l -50,4 24,-20 c 13,-12 28,-21 34,-21 6,0 3,6 -8,13 -16,12 -10,13 41,9 68,-5 71,-7 55,-25 -16,-20 -5,-41 32,-61 28,-14 29,-16 7,-12 -14,3 -53,8 -87,12 -54,6 -63,4 -63,-9 0,-20 22,-35 28,-19 2,7 24,12 53,12 35,0 48,-3 43,-12 -4,-6 1,-17 10,-24 16,-11 16,-13 -6,-19 -13,-4 -33,-17 -45,-28 -32,-29 -13,-47 50,-47 48,0 49,-1 34,-18 -23,-25 -4,-42 42,-41 27,1 30,3 11,6 -66,11 -62,25 17,55 65,25 68,23 37,-17 -14,-19 -23,-35 -19,-35 4,0 -5,-14 -20,-31 -14,-17 -24,-37 -22,-43 6,-18 31,-18 52,-1 20,16 19,16 -2,6 -37,-18 -38,8 -2,45 31,32 58,47 44,24 -3,-6 1,-13 9,-16 24,-9 19,-31 -10,-50 -46,-31 -74,-114 -37,-114 13,0 14,3 6,11 -6,6 -9,19 -6,28 12,34 55,81 74,81 11,0 29,5 40,10 15,8 19,7 19,-5 0,-8 6,-15 13,-15 6,0 3,-6 -8,-12 -34,-19 -42,-48 -14,-48 6,0 7,4 4,10 -7,11 40,56 69,66 12,4 22,1 28,-10 5,-9 16,-16 23,-16 20,0 20,-54 1,-69 -12,-10 -17,-8 -25,8 -6,11 -12,30 -12,43 -1,13 -5,5 -8,-17 -5,-30 -14,-45 -40,-62 -58,-39 -105,-26 -64,19 9,10 11,18 6,18 -13,0 -43,-44 -43,-64 0,-24 17,-28 56,-11 30,12 39,13 46,3 10,-17 10,-26 -2,-33 -5,-3 -10,-17 -10,-31 0,-37 31,-30 93,20 55,45 65,46 84,12 19,-35 -17,-106 -54,-106 -17,0 -17,24 1,59 15,27 14,28 -10,23 -17,-3 -22,-8 -16,-14 7,-7 7,-20 0,-40 -15,-43 3,-58 44,-35 30,17 30,17 25,-2 -2,-10 -1,-25 4,-32 7,-11 13,-9 29,11 l 20,25 0,-41 c 0,-22 6,-49 14,-59 14,-19 15,-19 34,-2 20,18 20,18 27,-3 4,-13 0,-31 -9,-45 -33,-50 -12,-60 41,-19 39,30 42,23 8,-22 -39,-51 -27,-73 22,-39 21,14 22,14 19,-11 -2,-15 -15,-41 -29,-60 -15,-18 -27,-35 -27,-38 0,-10 39,-6 45,4 4,6 -1,7 -11,3 -12,-4 -9,5 11,36 18,26 34,40 42,37 8,-3 11,-1 8,4 -3,6 -2,10 3,10 5,0 15,13 22,30 7,16 22,40 34,53 11,13 27,33 34,43 15,21 16,27 -14,-61 -18,-52 -44,-97 -63,-112 -10,-8 -11,-12 -4,-13 6,0 15,5 18,10 3,6 14,10 24,10 28,0 82,73 101,138 8,25 8,25 9,4 2,-40 60,-131 89,-138 15,-4 34,-12 42,-18 13,-9 13,-8 0,9 -62,79 -104,260 -69,301 13,16 15,15 20,-12 l 7,-29 1,27 c 0,15 6,39 11,55 11,28 11,28 -18,-6 -21,-23 -31,-29 -34,-20 -3,8 -9,-12 -13,-44 -6,-47 -4,-69 13,-115 13,-33 18,-60 13,-65 -16,-16 -30,2 -46,55 -40,135 -10,197 173,363 73,66 142,134 152,150 l 20,30 0,-32 c 0,-18 4,-33 9,-33 16,0 50,51 57,85 4,26 11,33 29,33 25,0 35,-28 35,-99 0,-44 -20,-53 -38,-16 -9,18 -11,6 -11,-63 -1,-83 -12,-123 -28,-106 -4,4 -7,42 -7,84 l 2,77 -13,-53 c -13,-55 -43,-107 -60,-103 -6,1 -9,23 -7,49 l 2,47 -39,-75 c -21,-41 -45,-76 -52,-79 -8,-2 -5,9 8,31 15,25 17,35 7,35 -7,0 -12,-3 -11,-6 4,-11 -64,-131 -74,-131 -14,0 -11,58 6,93 l 16,32 -21,-24 c -14,-16 -20,-37 -20,-70 0,-26 3,-51 7,-54 10,-11 33,13 49,51 11,27 17,33 26,24 9,-9 7,-16 -6,-31 -13,-14 -18,-35 -17,-75 0,-31 -4,-56 -9,-56 -5,0 -18,17 -29,38 -20,36 -20,36 -21,10 0,-16 -4,-28 -10,-28 -13,0 -24,64 -16,97 5,23 4,25 -4,10 -13,-21 -15,-77 -5,-135 7,-44 -8,-87 -28,-77 -7,4 -5,1 3,-7 9,-7 22,-28 29,-45 7,-18 18,-33 23,-33 5,0 6,-5 2,-12 -4,-6 -3,-8 4,-4 13,8 76,-70 67,-84 -3,-5 3,-10 15,-10 17,0 19,3 11,18 -5,9 -19,26 -30,36 -12,11 -21,30 -21,43 0,25 10,29 27,12 7,-7 19,-9 28,-5 15,5 14,10 -9,40 -35,47 -33,64 5,32 49,-41 75,-33 43,12 -10,15 -14,32 -10,48 6,22 8,23 22,9 8,-8 20,-15 25,-15 16,0 30,51 31,112 1,36 5,59 14,62 14,5 24,-15 24,-51 0,-18 -4,-24 -15,-19 -18,7 -20,-5 -3,-22 19,-19 28,-14 28,13 0,25 14,33 25,15 3,-5 17,-10 31,-10 26,0 31,18 13,51 -7,15 -7,24 2,35 10,12 16,11 46,-7 44,-28 63,-14 46,32 -18,48 -9,60 32,43 19,-8 41,-14 50,-14 23,0 18,35 -10,68 -13,16 -22,32 -18,36 7,7 -26,46 -40,46 -6,0 -2,-9 8,-20 10,-11 14,-20 10,-20 -5,0 4,-13 19,-29 18,-19 26,-36 22,-46 -7,-19 -33,-14 -83,17 -28,17 -33,25 -34,61 l -1,42 -8,-33 c -10,-44 -28,-62 -40,-42 -14,22 -13,73 1,64 7,-4 20,4 30,17 17,22 18,23 37,6 18,-17 52,-14 52,4 0,15 64,-3 88,-25 21,-18 52,-66 52,-80 0,-2 -8,-7 -17,-9 -14,-4 -12,-5 5,-6 35,-2 29,42 -13,87 -19,22 -31,43 -27,47 4,5 1,5 -5,1 -21,-12 -15,8 7,27 20,17 22,17 50,-12 47,-46 33,-70 -20,-35 l -25,16 24,-21 c 25,-23 71,-28 71,-9 0,7 -12,25 -27,41 l -28,29 40,-6 c 49,-8 87,12 67,37 -10,12 -5,15 34,20 25,2 51,10 57,16 15,15 -17,48 -55,56 -27,6 -28,8 -14,24 9,10 14,20 11,23 -8,7 85,19 96,12 5,-3 7,-10 4,-15 -4,-5 -2,-9 3,-9 14,0 33,26 25,33 -10,10 -73,8 -112,-3 -47,-13 -59,-2 -22,21 32,19 41,44 19,52 -22,8 -5,14 56,22 41,5 56,3 52,-4 -10,-15 7,-14 22,1 22,22 12,30 -30,23 l -43,-6 29,20 c 74,50 50,71 -54,45 -83,-20 -88,-29 -6,-13 89,18 86,-4 -6,-52 -34,-18 -60,-24 -128,-30 -14,-1 2,-5 34,-8 33,-3 61,-11 63,-17 5,-16 -44,-46 -102,-61 -43,-11 -44,-12 -11,-8 42,5 96,-3 96,-14 0,-4 -17,-12 -37,-18 -35,-10 -36,-11 -10,-12 42,-2 97,-28 97,-46 0,-26 -28,-29 -123,-12 -50,9 -93,15 -95,13 -1,-2 27,-14 64,-27 83,-29 95,-49 30,-49 -28,0 -46,5 -46,11 0,7 -34,45 -76,85 l -76,74 38,-5 c 55,-9 74,-15 74,-26 0,-5 -10,-9 -22,-9 -16,0 -19,-3 -11,-11 14,-14 53,-2 53,17 0,8 -9,18 -21,22 -21,8 -21,9 6,26 20,13 24,20 15,31 -8,10 -7,16 6,23 17,9 12,32 -7,32 -6,0 -8,-4 -4,-9 22,-36 -152,-12 -202,28 -31,24 -31,25 -11,35 34,18 45,43 26,58 -14,12 -12,18 19,66 51,79 155,146 122,79 -9,-20 -9,-20 11,2 11,13 19,29 17,35 -8,25 -39,15 -85,-28 -28,-26 -59,-46 -71,-46 l -22,0 20,29 c 12,16 21,34 21,39 0,5 11,23 25,38 62,74 144,184 168,228 23,41 36,78 73,209 3,9 10,17 16,17 16,0 3,-176 -18,-240 -10,-30 -42,-91 -71,-135 -29,-44 -39,-65 -23,-46 16,19 51,70 77,113 26,43 50,78 54,78 16,0 18,-20 8,-76 -17,-91 -102,-243 -137,-244 -9,-1 -51,-19 -92,-41 -85,-45 -82,-46 13,-5 64,28 97,29 97,5 0,-21 -69,-77 -132,-107 l -63,-31 73,6 c 86,7 94,-5 25,-41 -59,-31 -40,-34 28,-5 27,12 49,28 49,35 0,20 -39,37 -72,30 -24,-5 -17,3 34,37 44,29 66,51 72,72 5,17 11,37 14,45 3,8 4,19 3,23 -1,5 7,20 17,35 11,15 47,79 80,142 34,63 68,124 76,135 15,20 15,19 16,-5 0,-14 -14,-54 -30,-90 -22,-47 -25,-58 -10,-40 43,54 80,198 48,188 -7,-3 -27,-29 -45,-59 -34,-56 -58,-93 -48,-72 3,7 8,28 10,48 6,41 -14,56 -42,34 -15,-12 -16,-12 -9,6 16,44 26,169 16,207 -19,68 -40,47 -69,-71 -12,-47 -23,-86 -24,-88 -2,-1 -3,26 -3,61 1,59 -6,87 -19,74 -3,-2 -11,-33 -19,-69 -13,-59 -14,-61 -15,-24 -2,86 -57,235 -82,219 -5,-3 -9,-27 -9,-54 0,-82 -20,-195 -45,-260 -26,-67 -47,-98 -117,-172 l -44,-47 2,127 c 1,75 -3,156 -11,199 -13,68 -54,165 -75,178 -19,12 -10,22 15,17 36,-6 108,-74 130,-121 10,-23 20,-39 22,-37 6,5 -32,76 -55,102 -56,66 -150,112 -175,87 -4,-3 14,-28 39,-55 67,-71 87,-124 92,-239 4,-91 3,-96 -17,-102 -14,-3 -23,-16 -27,-36 -5,-26 -10,-30 -29,-25 -21,5 -23,1 -30,-48 -9,-65 -14,-74 -29,-53 -7,10 -21,16 -32,13 -16,-3 -19,-13 -21,-56 -2,-68 -35,-124 -112,-191 -32,-28 -67,-68 -77,-89 l -17,-37 -13,30 c -7,17 -44,60 -82,97 -39,36 -80,83 -91,105 -11,21 -20,33 -21,27 0,-21 58,-101 99,-133 48,-38 49,-55 1,-19 -25,18 -44,23 -89,22 -66,-1 -106,-20 -148,-68 -40,-45 -56,-96 -49,-154 3,-26 9,-74 12,-107 l 6,-60 -23,22 c -18,18 -23,34 -23,78 -1,43 -3,52 -12,40 -20,-27 -27,-16 -22,32 l 5,48 -14,-34 c -18,-44 -14,-87 9,-83 12,2 19,-7 23,-31 9,-45 51,-97 64,-78 4,7 7,23 4,35 -4,19 -2,19 13,-4 10,-14 54,-59 98,-100 195,-180 213,-201 231,-263 11,-39 14,-71 10,-100 -9,-52 -34,-117 -45,-117 -19,0 -18,20 1,76 15,41 19,69 14,94 -4,19 -7,44 -6,55 0,14 -2,16 -8,7 -6,-10 -15,-5 -34,20 l -27,33 9,-35 c 13,-52 20,-176 10,-192 -19,-28 -30,16 -23,97 3,49 1,90 -5,105 -10,23 -11,23 -5,-8 6,-36 -3,-92 -16,-92 -5,0 -10,12 -12,28 l -4,27 -19,-38 c -10,-20 -22,-37 -27,-37 -4,0 -8,24 -8,53 0,32 -6,61 -16,76 -11,15 -13,26 -6,33 6,6 16,-3 28,-29 11,-21 26,-38 34,-38 23,0 20,100 -4,123 -18,16 -18,16 -2,-15 17,-35 22,-93 7,-93 -11,0 -77,120 -73,133 1,5 -2,6 -7,3 -5,-4 -13,3 -16,15 -4,11 -9,18 -12,15 -3,-3 5,-21 17,-40 12,-20 20,-42 17,-49 -5,-13 -87,148 -87,172 0,8 -2,12 -5,9 -3,-3 -1,-27 5,-53 13,-58 6,-92 -16,-74 -23,19 -37,49 -50,109 l -12,55 2,-82 c 0,-44 -3,-85 -7,-89 -16,-17 -27,23 -27,106 0,79 -1,83 -16,62 -28,-41 -37,-27 -30,51 l 8,72 -24,-34 c -13,-19 -29,-36 -35,-39 -20,-6 -15,47 8,98 l 20,45 -29,-35 c -16,-19 -48,-46 -72,-59 -38,-21 -42,-22 -38,-5 3,20 126,117 138,109 4,-2 20,10 36,27 l 29,32 -29,-22 c -16,-12 -34,-22 -41,-22 -18,0 -27,28 -15,50 12,23 71,60 96,60 11,1 -2,10 -28,22 -58,25 -62,42 -10,35 56,-8 71,-12 84,-25 20,-20 32,-13 13,8 -18,19 -17,20 6,20 23,0 23,1 -8,26 -18,14 -33,30 -33,35 0,14 22,11 42,-8 18,-16 18,-16 12,2 -6,15 -4,17 12,11 13,-5 16,-4 9,3 -6,6 -32,11 -59,12 -41,2 -53,8 -92,45 -84,82 -34,122 53,42 25,-24 44,-38 42,-33 -3,6 -20,41 -38,78 -18,37 -31,71 -27,74 9,9 43,-25 82,-84 34,-52 55,-72 34,-34 -13,25 -13,34 0,26 6,-4 6,3 0,21 -12,30 -5,60 18,87 21,23 32,21 32,-5 0,-40 29,-131 46,-147 16,-15 16,-14 9,4 -13,31 -9,66 9,83 15,15 16,12 17,-33 l 1,-50 9,40 c 5,21 7,45 5,52 -7,18 -41,16 -57,-3 -12,-15 -14,-14 -20,7 -4,13 -7,41 -8,63 -1,35 -3,38 -26,34 -20,-4 -25,0 -30,23 -6,28 -20,44 -40,44 -15,0 -18,71 -5,143 13,76 38,130 91,193 22,25 39,48 39,52 0,14 -56,6 -87,-13 z M 531,1746 c 13,-96 37,-163 84,-235 20,-30 44,-77 54,-105 10,-28 21,-59 26,-69 6,-15 0,-13 -31,8 -24,16 -48,25 -62,22 -32,-6 -97,81 -123,164 -33,107 -21,282 25,338 9,12 11,9 14,-15 1,-16 7,-65 13,-108 z m 1282,87 c 16,-38 21,-68 21,-143 1,-52 -2,-113 -6,-135 -11,-60 29,66 43,138 7,32 14,55 18,51 9,-9 7,-113 -3,-107 -4,3 -5,-3 -2,-13 6,-21 -50,-128 -63,-120 -4,3 -15,-11 -25,-30 -30,-65 -77,-114 -100,-108 -14,3 -36,-4 -59,-20 -21,-15 -40,-26 -42,-26 -2,0 5,17 15,38 10,21 22,52 26,68 4,16 17,43 30,59 12,17 39,64 58,105 29,61 38,96 48,183 7,59 14,107 16,107 2,0 13,-21 25,-47 z M 796,1495 c 3,-14 1,-39 -6,-55 -8,-19 -10,-46 -6,-73 5,-32 4,-39 -5,-30 -25,25 -33,140 -12,176 9,15 23,6 29,-18 z m 742,-47 c 2,-35 -3,-71 -13,-94 -18,-43 -29,-42 -16,3 5,18 5,48 -2,76 -11,49 -4,81 16,75 7,-3 13,-27 15,-60 z m -54,-20 c 19,-26 21,-71 5,-100 -8,-15 -8,-19 0,-14 20,13 12,-10 -19,-53 -17,-23 -35,-39 -40,-36 -16,10 -44,-3 -59,-27 -13,-22 -13,-22 13,1 28,26 33,23 15,-12 -22,-42 61,46 115,123 30,41 63,84 75,94 21,19 21,19 21,-5 0,-13 -16,-50 -35,-81 -19,-32 -32,-58 -28,-58 3,0 25,18 49,40 48,44 84,53 84,20 0,-55 -72,-110 -142,-110 -32,0 -50,-5 -59,-17 -11,-15 -11,-16 1,-5 22,19 32,14 24,-10 l -6,-23 24,23 c 25,23 48,29 48,13 0,-5 -17,-23 -37,-40 -29,-23 -33,-29 -15,-24 24,6 29,-6 10,-27 -11,-12 -10,-12 5,0 10,8 26,15 35,16 10,1 34,6 56,10 48,9 47,-10 -3,-37 -18,-10 -36,-21 -39,-25 -4,-4 -2,-4 5,0 16,9 77,-29 92,-58 25,-46 -7,-60 -55,-24 l -29,22 29,-32 c 17,-18 36,-32 44,-32 26,0 201,-154 189,-167 -9,-8 -59,26 -52,36 2,5 -7,12 -21,15 -14,4 -49,30 -76,58 l -50,52 21,-42 c 23,-46 29,-106 9,-100 -18,6 -57,67 -64,97 -3,14 -9,35 -14,46 -7,15 -9,10 -10,-25 -1,-40 -2,-43 -14,-27 -12,15 -14,11 -18,-34 -4,-35 -12,-57 -28,-72 l -22,-22 8,65 c 15,127 11,191 -16,232 -28,42 -93,87 -127,89 -94,5 -112,1 -156,-42 -37,-37 -38,-38 -5,-11 87,72 210,45 266,-58 20,-38 23,-56 20,-116 -5,-101 -42,-158 -180,-276 -109,-93 -178,-176 -178,-213 0,-11 -10,1 -24,30 -14,32 -50,76 -97,120 -221,210 -238,231 -246,324 -7,76 9,129 53,173 59,61 146,75 208,33 41,-28 51,-31 40,-12 -5,8 -2,8 9,-2 9,-7 17,-19 17,-25 0,-6 -5,-4 -10,4 -6,9 -10,10 -10,3 0,-6 5,-15 11,-19 6,-3 19,-25 29,-48 15,-35 19,-38 25,-21 3,11 11,28 17,39 5,10 11,27 13,38 3,11 34,47 70,80 75,69 107,123 110,185 2,54 11,63 27,29 9,-21 9,-35 1,-57 -6,-16 -8,-29 -3,-29 12,0 40,66 53,125 6,30 14,55 18,55 5,0 15,-10 23,-22 z M 370,1282 c 8,2 14,-12 16,-36 4,-46 14,-59 79,-102 l 50,-34 -39,0 c -30,0 -39,-4 -43,-20 -7,-25 -22,-22 -117,29 -101,53 -208,163 -182,188 3,3 33,-16 67,-41 34,-26 68,-45 76,-42 8,3 12,2 9,-3 -7,-10 82,-66 91,-58 3,3 -9,13 -25,21 -56,29 -172,192 -172,242 0,10 33,-14 89,-65 49,-45 95,-80 101,-79 z m 351,-99 c 22,-24 25,-32 15,-45 -9,-12 -16,-14 -31,-6 -54,29 -83,80 -52,91 16,6 37,-6 68,-40 z m 934,27 c 10,-16 -21,-57 -55,-75 -26,-14 -33,-14 -45,-2 -12,12 -8,19 22,51 35,36 66,46 78,26 z M 590,975 c 0,-35 0,-35 -44,-35 -50,0 -96,14 -96,29 0,10 50,26 105,34 17,2 31,5 33,6 1,0 2,-15 2,-34 z m 1233,3 c 40,-21 11,-38 -67,-38 -53,0 -53,0 -52,31 l 1,30 50,-7 c 28,-3 58,-10 68,-16 z M 436,901 c -1,-11 9,-17 29,-18 29,-3 29,-2 6,7 -34,15 -16,28 44,36 l 50,6 -45,-40 c -52,-47 -110,-65 -210,-66 -51,-1 -65,2 -65,14 0,19 43,40 103,50 44,7 45,8 12,10 -19,1 -44,5 -55,9 -18,7 -17,9 9,17 40,14 124,-4 122,-25 z m 144,-57 c -11,-28 -40,-56 -82,-79 -28,-16 -35,-11 -19,14 7,10 98,86 108,90 1,1 -2,-11 -7,-25 z m 1236,-76 c 14,-22 -9,-19 -47,8 -34,24 -59,57 -59,81 0,6 98,-75 106,-89 z M 488,808 c -5,-14 -50,-40 -57,-33 -2,3 4,14 14,25 20,22 49,27 43,8 z m 89,-42 c -8,-19 -53,-49 -68,-44 -7,2 1,19 21,42 22,24 36,34 43,27 5,-5 7,-16 4,-25 z m 59,7 c -10,-42 -66,-84 -66,-49 0,12 57,76 68,76 2,0 1,-12 -2,-27 z m 1084,-50 c 0,-38 -54,3 -65,50 l -7,27 36,-32 c 20,-17 36,-38 36,-45 z m 54,-1 c -25,-6 -67,40 -58,63 7,16 11,14 42,-21 28,-32 31,-40 16,-42 z M 793,558 c 18,-19 23,-63 8,-72 -22,-14 -61,61 -53,103 5,24 6,24 16,7 6,-11 19,-28 29,-38 z m 745,-18 c -12,-32 -38,-61 -49,-54 -12,7 -11,64 1,64 5,0 17,15 27,33 l 17,32 6,-25 c 4,-14 3,-36 -2,-50 z m -904,45 c 3,-9 -3,-19 -15,-26 -28,-15 -36,-3 -14,21 22,24 21,24 29,5 z m 60,-27 c -6,-16 -82,-78 -95,-78 -5,0 -9,8 -9,18 0,20 49,72 67,72 6,0 14,8 18,18 6,16 7,16 16,0 5,-9 6,-22 3,-30 z m 196,-90 c 0,-34 -14,-36 -35,-4 -22,34 -34,79 -28,110 5,27 7,26 34,-25 16,-29 29,-65 29,-81 z m 571,91 c 1,-18 8,-58 17,-87 13,-46 13,-55 1,-63 -10,-6 -10,-9 -1,-9 17,0 15,-51 -4,-75 -13,-17 -16,-18 -24,-5 -13,20 -13,137 0,145 6,3 10,14 10,23 0,11 -7,5 -20,-15 -45,-74 -56,-9 -13,74 15,28 29,51 30,49 1,-1 3,-18 4,-37 z m 181,6 c 8,8 58,-54 58,-71 0,-25 -30,-15 -71,24 -29,27 -38,42 -33,55 6,16 8,16 24,2 9,-8 19,-13 22,-10 z m 46,13 c 16,-16 15,-28 -2,-28 -17,0 -38,24 -29,33 9,10 17,9 31,-5 z m -82,-63 c 19,-29 12,-44 -11,-25 -13,11 -13,9 0,-23 20,-48 19,-57 -4,-57 -38,0 -63,66 -45,114 9,24 42,19 60,-9 z M 850,400 c 0,-22 -5,-51 -10,-66 -10,-26 -11,-26 -25,-8 -18,23 -19,74 -2,75 10,0 10,2 0,6 -16,6 -17,34 -1,68 l 12,26 13,-32 c 7,-17 13,-48 13,-69 z m -65,31 c -3,-11 -12,-25 -20,-31 -13,-10 -15,-8 -15,11 0,13 3,34 6,46 5,20 8,20 21,8 8,-9 12,-23 8,-34 z m 135,-20 c 0,-50 -18,-101 -36,-101 -10,0 -14,14 -14,55 0,42 3,55 15,55 8,0 15,9 15,21 0,11 5,17 10,14 6,-3 10,-23 10,-44 z m 500,-57 c 0,-89 -42,-55 -48,39 l -4,62 26,-29 c 19,-22 26,-40 26,-72 z m -332,-1 c -2,-26 -9,-48 -15,-51 -10,-3 -13,14 -13,63 0,60 1,65 16,51 10,-11 14,-30 12,-63 z m -87,-18 c 1,6 5,-12 8,-40 5,-38 2,-60 -13,-92 -21,-45 -43,-59 -32,-20 13,43 27,129 23,133 -2,3 -10,-9 -17,-26 -17,-42 -30,-38 -23,8 8,51 22,67 39,45 7,-10 14,-13 15,-8 z m 339,-43 c 0,-19 -4,-31 -10,-27 -5,3 -10,12 -10,20 0,8 -5,17 -11,21 -13,7 -5,-69 11,-112 24,-62 -3,-53 -30,10 -18,44 -17,142 1,130 5,-3 12,2 16,12 6,16 7,15 20,-2 7,-10 13,-33 13,-52 z m -410,15 c 0,-21 -46,-77 -63,-77 -7,0 12,45 33,78 19,28 30,28 30,-1 z m 478,-38 c 11,-21 16,-39 13,-39 -24,0 -76,74 -65,92 9,14 30,-9 52,-53 z M 964,238 c -12,-21 -47,-58 -55,-58 -13,0 25,59 41,64 8,2 16,4 18,5 2,0 0,-5 -4,-11 z m 410,-38 18,-32 -26,17 c -39,26 -64,75 -28,56 9,-5 25,-24 36,-41 z m -284,-18 c 0,-16 -27,-45 -39,-41 -8,3 -7,11 4,27 16,22 35,30 35,14 z m 140,-11 c 16,-30 13,-46 -6,-31 -26,22 -37,50 -20,50 9,0 20,-9 26,-19 z"
       id="path6"
       style="fill:#fefe3c;fill-opacity:1"
       inkscape:connector-curvature="0" />
    <path
       d="m 1586,977 c 3,-10 9,-15 12,-12 3,3 0,11 -7,18 -10,9 -11,8 -5,-6 z"
       id="path8"
       style="fill:#fefe3c;fill-opacity:1"
       inkscape:connector-curvature="0" />
    <path
       d="m 390,1156 c 0,-2 7,-7 16,-10 8,-3 12,-2 9,4 -6,10 -25,14 -25,6 z"
       id="path10"
       style="fill:#fefe3c;fill-opacity:1"
       inkscape:connector-curvature="0" />
    <path
       d="m 595,1807 c -4,-10 -5,-21 -1,-24 10,-10 18,4 13,24 -4,17 -4,17 -12,0 z"
       id="path12"
       style="fill:#fefe3c;fill-opacity:1"
       inkscape:connector-curvature="0" />
    <path
       d="m 1684,1796 c -3,-8 -4,-25 -1,-38 4,-19 5,-18 6,7 1,23 3,27 11,15 8,-13 10,-13 10,2 0,23 -19,33 -26,14 z"
       id="path14"
       style="fill:#fefe3c;fill-opacity:1"
       inkscape:connector-curvature="0" />
    <path
       d="m 395,1756 c -4,-19 -5,-42 -2,-53 3,-10 5,-4 6,15 1,35 21,45 21,10 0,-12 3,-19 6,-16 8,9 -7,78 -17,78 -4,0 -11,-15 -14,-34 z"
       id="path16"
       style="fill:#fefe3c;fill-opacity:1"
       inkscape:connector-curvature="0" />
    <path
       d="m 583,1730 c 0,-25 2,-35 4,-22 2,12 2,32 0,45 -2,12 -4,2 -4,-23 z"
       id="path18"
       style="fill:#fefe3c;fill-opacity:1"
       inkscape:connector-curvature="0" />
    <path
       d="m 1713,1725 c 0,-22 2,-30 4,-17 2,12 2,30 0,40 -3,9 -5,-1 -4,-23 z"
       id="path20"
       style="fill:#fefe3c;fill-opacity:1"
       inkscape:connector-curvature="0" />
    <path
       d="m 1641,1714 c 0,-11 3,-14 6,-6 3,7 2,16 -1,19 -3,4 -6,-2 -5,-13 z"
       id="path22"
       style="fill:#fefe3c;fill-opacity:1"
       inkscape:connector-curvature="0" />
    <path
       d="m 641,1684 c 0,-11 3,-14 6,-6 3,7 2,16 -1,19 -3,4 -6,-2 -5,-13 z"
       id="path24"
       style="fill:#fefe3c;fill-opacity:1"
       inkscape:connector-curvature="0" />
    <path
       d="m 1683,1665 c 0,-22 2,-30 4,-17 2,12 2,30 0,40 -3,9 -5,-1 -4,-23 z"
       id="path26"
       style="fill:#fefe3c;fill-opacity:1"
       inkscape:connector-curvature="0" />
    <path
       d="m 1657,1625 c 3,-38 7,-72 9,-74 7,-8 2,84 -6,114 -5,18 -6,2 -3,-40 z"
       id="path28"
       style="fill:#fefe3c;fill-opacity:1"
       inkscape:connector-curvature="0" />
    <path
       d="m 633,1595 c 0,-38 2,-53 4,-32 2,20 2,52 0,70 -2,17 -4,1 -4,-38 z"
       id="path30"
       style="fill:#fefe3c;fill-opacity:1"
       inkscape:connector-curvature="0" />
    <path
       d="m 1651,1524 c 0,-11 3,-14 6,-6 3,7 2,16 -1,19 -3,4 -6,-2 -5,-13 z"
       id="path32"
       style="fill:#fefe3c;fill-opacity:1"
       inkscape:connector-curvature="0" />
    <path
       d="m 230,1460 c 6,-11 13,-20 16,-20 2,0 0,9 -6,20 -6,11 -13,20 -16,20 -2,0 0,-9 6,-20 z"
       id="path34"
       style="fill:#fefe3c;fill-opacity:1"
       inkscape:connector-curvature="0" />
    <path
       d="m 2088,1443 c -18,-21 -60,-67 -93,-103 -60,-66 -36,-48 67,49 26,25 51,42 55,38 11,-11 -39,-105 -88,-166 -24,-30 -63,-67 -88,-83 -53,-33 -47,-37 12,-7 55,29 113,66 164,107 45,36 66,29 39,-13 -18,-28 -20,-39 -6,-30 16,10 51,85 45,95 -10,17 -20,12 -96,-50 -77,-63 -111,-79 -67,-32 67,72 127,185 114,217 -9,23 -23,18 -58,-22 z"
       id="path36"
       style="fill:#fefe3c;fill-opacity:1"
       inkscape:connector-curvature="0" />
    <path
       d="m 855,1222 c 27,-28 51,-52 54,-52 2,0 -3,8 -12,18 -29,32 -18,37 14,6 26,-24 30,-25 20,-7 -14,27 -51,54 -63,47 -5,-4 -22,4 -36,17 -15,13 -5,0 23,-29 z"
       id="path38"
       style="fill:#fefe3c;fill-opacity:1"
       inkscape:connector-curvature="0" />
    <path
       d="m 2185,1245 c -21,-13 -42,-22 -46,-20 -3,3 -15,-5 -25,-17 -26,-29 -141,-103 -193,-124 -23,-9 -40,-18 -38,-21 7,-7 96,21 91,28 -3,5 10,16 28,25 18,9 40,22 48,29 30,26 162,96 168,90 4,-4 -13,-25 -37,-46 -24,-21 -41,-39 -37,-39 13,0 106,93 106,106 0,19 -18,16 -65,-11 z"
       id="path40"
       style="fill:#fefe3c;fill-opacity:1"
       inkscape:connector-curvature="0" />
    <path
       d="m 710,1000 c -6,-11 -8,-20 -6,-20 3,0 10,9 16,20 6,11 8,20 6,20 -3,0 -10,-9 -16,-20 z"
       id="path42"
       style="fill:#fefe3c;fill-opacity:1"
       inkscape:connector-curvature="0" />
    <path
       d="m 1878,893 c 7,-3 16,-2 19,1 4,3 -2,6 -13,5 -11,0 -14,-3 -6,-6 z"
       id="path44"
       style="fill:#fefe3c;fill-opacity:1"
       inkscape:connector-curvature="0" />
    <path
       d="m 449,713 c -13,-16 -12,-17 4,-4 9,7 17,15 17,17 0,8 -8,3 -21,-13 z"
       id="path46"
       style="fill:#fefe3c;fill-opacity:1"
       inkscape:connector-curvature="0" />
    <path
       d="m 1481,694 c 0,-11 3,-14 6,-6 3,7 2,16 -1,19 -3,4 -6,-2 -5,-13 z"
       id="path48"
       style="fill:#fefe3c;fill-opacity:1"
       inkscape:connector-curvature="0" />
    <path
       d="m 469,613 c -13,-16 -12,-17 4,-4 9,7 17,15 17,17 0,8 -8,3 -21,-13 z"
       id="path50"
       style="fill:#fefe3c;fill-opacity:1"
       inkscape:connector-curvature="0" />
    <path
       d="m 1225,330 c 3,-5 8,-10 11,-10 2,0 4,5 4,10 0,6 -5,10 -11,10 -5,0 -7,-4 -4,-10 z"
       id="path52"
       style="fill:#fefe3c;fill-opacity:1"
       inkscape:connector-curvature="0" />
    <path
       d="m 1216,302 c -2,-4 -1,-14 5,-22 7,-12 9,-10 9,8 0,23 -5,28 -14,14 z"
       id="path54"
       style="fill:#fefe3c;fill-opacity:1"
       inkscape:connector-curvature="0" />
    <path
       d="m 1301,107 c 2,-1 15,-11 29,-22 l 25,-20 -19,23 c -11,12 -24,22 -29,22 -6,0 -8,-1 -6,-3 z"
       id="path56"
       style="fill:#fefe3c;fill-opacity:1"
       inkscape:connector-curvature="0" />
  </g>
</svg>
